<?xml version="1.0" encoding="UTF-8"?>
<svg xmlns="http://www.w3.org/2000/svg" version="1.1" viewBox="0 0 1000 600">
  <defs>
    <style>
      .cls-1 {
        fill: #231f20;
      }

      .cls-2 {
        fill: #fff;
        stroke: #231f20;
      }

      .cls-2, .cls-3 {
        stroke-miterlimit: 10;
      }

      .cls-3 {
        fill: none;
        stroke: #ed2024;
        stroke-width: 0px;
      }
    </style>
  </defs>
  <!-- Generator: Adobe Illustrator 28.7.1, SVG Export Plug-In . SVG Version: 1.2.0 Build 142)  -->
  <g>
    <g id="Layer_1">
      <path class="cls-2" d="M402,225"/>
      <path class="cls-3" d="M425,281.75v-48l-26.21-39.32-237.57,78.64-20.72-31.08c-1.65-2.47-5.5-1.3-5.5,1.66v38.09h143.5v-25h3v25h143.5Z"/>
      <path class="cls-3" d="M425,185.75H135v48l26.21,39.32,117.29-38.92v-25h3v24.6l117.29-39.32,20.72,31.08c1.65,2.47,5.5,1.3,5.5-1.66v-38.09Z"/>
      <g>
        <path class="cls-1" d="M398.54,260.63c-1.28.14-1.7.34-1.76,1.26-.02.64-.06,1.48-.06,3.34v8.02h-.76l-8.56-10.46v5c0,1.8.06,2.7.1,3.28.04,1.02.54,1.32,1.98,1.44v.56h-4.86v-.56c1.24-.1,1.72-.4,1.8-1.38.06-.64.1-1.54.1-3.36v-5.1c0-.56-.04-.88-.4-1.32-.38-.5-.8-.62-1.78-.72v-.56h3l8.48,10.06v-4.9c0-1.86-.04-2.72-.1-3.32-.06-.9-.52-1.18-2.12-1.28v-.56h4.94v.56Z"/>
        <path class="cls-1" d="M414.06,260.63c-1.66.16-1.82.26-1.82,1.94v8.02c0,1.68.18,1.74,1.82,1.92v.56h-5.36v-.56c1.66-.2,1.82-.24,1.82-1.92v-4h-6.84v4c0,1.66.16,1.72,1.8,1.92v.56h-5.34v-.56c1.62-.18,1.8-.24,1.8-1.92v-8.02c0-1.68-.18-1.78-1.8-1.94v-.56h5.34v.56c-1.6.14-1.8.28-1.8,1.94v3.18h6.84v-3.18c0-1.66-.22-1.8-1.82-1.94v-.56h5.36v.56Z"/>
      </g>
    </g>
  </g>
</svg>
